# Blender v3.2.0 OBJ File: 'untitled.blend'
# www.blender.org
mtllib kek2.mtl
o Cube
v 0.907196 0.907196 -1.000000
v 0.907196 1.000000 -0.907196
v 1.000000 0.907196 -0.907196
v 0.907196 -1.000000 -0.907196
v 0.907196 -0.907196 -1.000000
v 1.000000 -0.907196 -0.907196
v 1.000000 0.907196 0.907196
v 0.907196 1.000000 0.907196
v 0.907196 0.907196 1.000000
v 1.000000 -0.907196 0.907196
v 0.907196 -0.907196 1.000000
v 0.907196 -1.000000 0.907196
v -0.907196 0.907196 -1.000000
v -1.000000 0.907196 -0.907196
v -0.907196 1.000000 -0.907196
v -1.000000 -0.907196 -0.907196
v -0.907196 -0.907196 -1.000000
v -0.907196 -1.000000 -0.907196
v -1.000000 0.907196 0.907196
v -0.907196 0.907196 1.000000
v -0.907196 1.000000 0.907196
v -0.907196 -1.000000 0.907196
v -0.907196 -0.907196 1.000000
v -1.000000 -0.907196 0.907196
vt 0.613400 0.488400
vt 0.625000 0.488399
vt 0.613400 0.500000
vt 0.363399 0.511600
vt 0.363399 0.500000
vt 0.375000 0.511600
vt 0.613400 0.750000
vt 0.625000 0.761600
vt 0.613399 0.761600
vt 0.375000 0.738399
vt 0.363399 0.750000
vt 0.363400 0.738400
vt 0.613400 0.250000
vt 0.613400 0.238399
vt 0.625000 0.238399
vt 0.125000 0.511600
vt 0.136601 0.500000
vt 0.136601 0.511600
vt 0.613399 0.011601
vt 0.613400 0.000000
vt 0.625000 0.011601
vt 0.136601 0.738399
vt 0.136601 0.750000
vt 0.125000 0.738399
vt 0.613399 0.511600
vt 0.386600 0.511600
vt 0.386600 0.488399
vt 0.386600 0.000000
vt 0.386600 0.011601
vt 0.386600 0.761600
vt 0.386600 0.738399
vt 0.613400 0.738400
vt 0.613399 0.261600
vt 0.386600 0.261600
vt 0.386600 0.238399
vt 0.625000 0.988400
vt 0.613400 0.988400
vt 0.636600 0.511600
vt 0.636600 0.738399
vt 0.625000 0.261600
vt 0.386600 0.988399
vt 0.863399 0.511600
vt 0.863400 0.738400
vn 0.5774 0.5774 -0.5774
vn 0.5774 -0.5774 -0.5774
vn 0.5774 0.5774 0.5774
vn 0.5774 -0.5774 0.5774
vn -0.5774 0.5774 -0.5774
vn -0.5774 -0.5774 -0.5774
vn -0.5774 0.5774 0.5774
vn -0.5774 -0.5774 0.5774
vn -0.7071 -0.7071 0.0000
vn 0.0000 -0.7071 -0.7071
vn 0.7071 0.0000 -0.7071
vn -0.7071 0.0000 0.7071
vn 0.7071 0.0000 0.7071
vn -0.7071 0.0000 -0.7071
vn 0.0000 0.7071 0.7071
vn 0.7071 0.7071 0.0000
vn 0.0000 -0.7071 0.7071
vn -0.7071 0.7071 0.0000
vn 0.0000 0.7071 -0.7071
vn 0.7071 -0.7071 0.0000
vn 0.0000 0.0000 1.0000
vn 0.0000 -1.0000 0.0000
vn 0.0000 1.0000 0.0000
vn 1.0000 0.0000 0.0000
vn 0.0000 0.0000 -1.0000
vn -1.0000 0.0000 0.0000
usemtl black
s off
f 1/1/1 2/2/1 3/3/1
f 4/4/2 5/5/2 6/6/2
f 7/7/3 8/8/3 9/9/3
f 10/10/4 11/11/4 12/12/4
f 13/13/5 14/14/5 15/15/5
f 16/16/6 17/17/6 18/18/6
f 19/19/7 20/20/7 21/21/7
f 22/22/8 23/23/8 24/24/8
f 18/18/9 22/22/9 24/24/9 16/16/9
f 4/4/10 18/18/10 17/17/10 5/5/10
f 3/25/11 6/26/11 5/27/11 1/1/11
f 23/28/12 20/20/12 19/19/12 24/29/12
f 9/9/13 11/30/13 10/31/13 7/32/13
f 13/33/14 17/34/14 16/35/14 14/14/14
f 8/8/15 21/36/15 20/37/15 9/9/15
f 2/38/16 8/39/16 7/32/16 3/25/16
f 22/22/17 12/12/17 11/11/17 23/23/17
f 21/21/18 15/15/18 14/14/18 19/19/18
f 15/40/19 2/2/19 1/1/19 13/33/19
f 12/12/20 4/4/20 6/26/20 10/31/20
usemtl red
f 11/30/21 9/9/21 20/37/21 23/41/21
usemtl yellow
f 18/18/22 4/4/22 12/12/22 22/22/22
usemtl white
f 2/38/23 15/42/23 21/43/23 8/39/23
usemtl blue
f 6/26/24 3/25/24 7/32/24 10/31/24
usemtl orange
f 17/34/25 13/33/25 1/1/25 5/27/25
usemtl green
f 24/29/26 19/19/26 14/14/26 16/35/26
